<svg width="32" height="32" viewBox="0 0 32 32" fill="none" xmlns="http://www.w3.org/2000/svg">
<circle cx="16" cy="16" r="16" fill="#061A40"/>
<path d="M12.6094 17.2266H14.9453C14.8984 17.9922 14.6875 18.6719 14.3125 19.2656C13.9427 19.8594 13.4245 20.3229 12.7578 20.6562C12.0964 20.9896 11.2995 21.1562 10.3672 21.1562C9.63802 21.1562 8.98438 21.0312 8.40625 20.7812C7.82812 20.526 7.33333 20.1615 6.92188 19.6875C6.51562 19.2135 6.20573 18.6406 5.99219 17.9688C5.77865 17.2969 5.67188 16.5443 5.67188 15.7109V14.9219C5.67188 14.0885 5.78125 13.3359 6 12.6641C6.22396 11.987 6.54167 11.4115 6.95312 10.9375C7.36979 10.4635 7.86719 10.099 8.44531 9.84375C9.02344 9.58854 9.66927 9.46094 10.3828 9.46094C11.3307 9.46094 12.1302 9.63281 12.7812 9.97656C13.4375 10.3203 13.9453 10.7943 14.3047 11.3984C14.6693 12.0026 14.888 12.6901 14.9609 13.4609H12.6172C12.5911 13.0026 12.5 12.6146 12.3438 12.2969C12.1875 11.974 11.9505 11.7318 11.6328 11.5703C11.3203 11.4036 10.9036 11.3203 10.3828 11.3203C9.99219 11.3203 9.65104 11.3932 9.35938 11.5391C9.06771 11.6849 8.82292 11.9062 8.625 12.2031C8.42708 12.5 8.27865 12.875 8.17969 13.3281C8.08594 13.776 8.03906 14.3021 8.03906 14.9062V15.7109C8.03906 16.2995 8.08333 16.8177 8.17188 17.2656C8.26042 17.7083 8.39583 18.0833 8.57812 18.3906C8.76562 18.6927 9.00521 18.9219 9.29688 19.0781C9.59375 19.2292 9.95052 19.3047 10.3672 19.3047C10.8568 19.3047 11.2604 19.2266 11.5781 19.0703C11.8958 18.9141 12.138 18.6823 12.3047 18.375C12.4766 18.0677 12.5781 17.6849 12.6094 17.2266ZM25.5 15.0547V19.5625C25.3229 19.776 25.0495 20.0078 24.6797 20.2578C24.3099 20.5026 23.8333 20.7135 23.25 20.8906C22.6667 21.0677 21.9609 21.1562 21.1328 21.1562C20.3984 21.1562 19.7292 21.0365 19.125 20.7969C18.5208 20.5521 18 20.1953 17.5625 19.7266C17.1302 19.2578 16.7969 18.6849 16.5625 18.0078C16.3281 17.3255 16.2109 16.5469 16.2109 15.6719V14.9609C16.2109 14.0859 16.3229 13.3073 16.5469 12.625C16.776 11.9427 17.1016 11.3672 17.5234 10.8984C17.9453 10.4297 18.4479 10.0729 19.0312 9.82812C19.6146 9.58333 20.263 9.46094 20.9766 9.46094C21.9661 9.46094 22.7786 9.6224 23.4141 9.94531C24.0495 10.263 24.5339 10.7057 24.8672 11.2734C25.2057 11.8359 25.4141 12.4818 25.4922 13.2109H23.2188C23.1615 12.8255 23.0521 12.4896 22.8906 12.2031C22.7292 11.9167 22.4974 11.6927 22.1953 11.5312C21.8984 11.3698 21.513 11.2891 21.0391 11.2891C20.6484 11.2891 20.2995 11.3698 19.9922 11.5312C19.6901 11.6875 19.4349 11.9193 19.2266 12.2266C19.0182 12.5339 18.8594 12.9141 18.75 13.3672C18.6406 13.8203 18.5859 14.3464 18.5859 14.9453V15.6719C18.5859 16.2656 18.6432 16.7917 18.7578 17.25C18.8724 17.7031 19.0417 18.0859 19.2656 18.3984C19.4948 18.7057 19.776 18.9375 20.1094 19.0938C20.4427 19.25 20.8307 19.3281 21.2734 19.3281C21.6432 19.3281 21.9505 19.2969 22.1953 19.2344C22.4453 19.1719 22.6458 19.0964 22.7969 19.0078C22.9531 18.9141 23.0729 18.8255 23.1562 18.7422V16.7266H21.0156V15.0547H25.5Z" fill="white"/>
</svg>
