<svg width="121" height="29" viewBox="0 0 121 29" fill="none" xmlns="http://www.w3.org/2000/svg">
<path d="M1.992 23V6.2H9.264C10.768 6.2 12.064 6.448 13.152 6.944C14.24 7.424 15.08 8.12 15.672 9.032C16.264 9.944 16.56 11.032 16.56 12.296C16.56 13.544 16.264 14.624 15.672 15.536C15.08 16.448 14.24 17.152 13.152 17.648C12.064 18.128 10.768 18.368 9.264 18.368H4.152L5.88 16.616V23H1.992ZM5.88 17.048L4.152 15.2H9.048C10.248 15.2 11.144 14.944 11.736 14.432C12.328 13.92 12.624 13.208 12.624 12.296C12.624 11.368 12.328 10.648 11.736 10.136C11.144 9.624 10.248 9.368 9.048 9.368H4.152L5.88 7.52V17.048ZM25.1923 23.192C23.8163 23.192 22.5923 22.904 21.5203 22.328C20.4643 21.752 19.6243 20.968 19.0003 19.976C18.3923 18.968 18.0883 17.824 18.0883 16.544C18.0883 15.248 18.3923 14.104 19.0003 13.112C19.6243 12.104 20.4643 11.32 21.5203 10.76C22.5923 10.184 23.8163 9.896 25.1923 9.896C26.5523 9.896 27.7683 10.184 28.8403 10.76C29.9123 11.32 30.7523 12.096 31.3603 13.088C31.9683 14.08 32.2723 15.232 32.2723 16.544C32.2723 17.824 31.9683 18.968 31.3603 19.976C30.7523 20.968 29.9123 21.752 28.8403 22.328C27.7683 22.904 26.5523 23.192 25.1923 23.192ZM25.1923 20.12C25.8163 20.12 26.3763 19.976 26.8723 19.688C27.3683 19.4 27.7603 18.992 28.0483 18.464C28.3363 17.92 28.4803 17.28 28.4803 16.544C28.4803 15.792 28.3363 15.152 28.0483 14.624C27.7603 14.096 27.3683 13.688 26.8723 13.4C26.3763 13.112 25.8163 12.968 25.1923 12.968C24.5683 12.968 24.0083 13.112 23.5123 13.4C23.0163 13.688 22.6163 14.096 22.3123 14.624C22.0243 15.152 21.8803 15.792 21.8803 16.544C21.8803 17.28 22.0243 17.92 22.3123 18.464C22.6163 18.992 23.0163 19.4 23.5123 19.688C24.0083 19.976 24.5683 20.12 25.1923 20.12ZM34.7749 23V10.088H38.3509V13.736L37.8469 12.68C38.2309 11.768 38.8469 11.08 39.6949 10.616C40.5429 10.136 41.5749 9.896 42.7909 9.896V13.352C42.6309 13.336 42.4869 13.328 42.3589 13.328C42.2309 13.312 42.0949 13.304 41.9509 13.304C40.9269 13.304 40.0949 13.6 39.4549 14.192C38.8309 14.768 38.5189 15.672 38.5189 16.904V23H34.7749ZM50.7424 23.192C49.2224 23.192 48.0384 22.808 47.1904 22.04C46.3424 21.256 45.9184 20.096 45.9184 18.56V7.232H49.6624V18.512C49.6624 19.056 49.8064 19.48 50.0944 19.784C50.3824 20.072 50.7744 20.216 51.2704 20.216C51.8624 20.216 52.3664 20.056 52.7824 19.736L53.7904 22.376C53.4064 22.648 52.9424 22.856 52.3984 23C51.8704 23.128 51.3184 23.192 50.7424 23.192ZM43.9264 13.256V10.376H52.8784V13.256H43.9264ZM56.3481 23V9.8C56.3481 8.344 56.7801 7.184 57.6441 6.32C58.5081 5.44 59.7401 5 61.3401 5C61.8841 5 62.4041 5.056 62.9001 5.168C63.4121 5.28 63.8441 5.456 64.1961 5.696L63.2121 8.408C63.0041 8.264 62.7721 8.152 62.5161 8.072C62.2601 7.992 61.9881 7.952 61.7001 7.952C61.1561 7.952 60.7321 8.112 60.4281 8.432C60.1401 8.736 59.9961 9.2 59.9961 9.824V11.024L60.0921 12.632V23H56.3481ZM54.3561 13.256V10.376H63.3081V13.256H54.3561ZM71.1533 23.192C69.7773 23.192 68.5533 22.904 67.4813 22.328C66.4253 21.752 65.5853 20.968 64.9613 19.976C64.3533 18.968 64.0493 17.824 64.0493 16.544C64.0493 15.248 64.3533 14.104 64.9613 13.112C65.5853 12.104 66.4253 11.32 67.4813 10.76C68.5533 10.184 69.7773 9.896 71.1533 9.896C72.5133 9.896 73.7293 10.184 74.8013 10.76C75.8733 11.32 76.7133 12.096 77.3213 13.088C77.9293 14.08 78.2333 15.232 78.2333 16.544C78.2333 17.824 77.9293 18.968 77.3213 19.976C76.7133 20.968 75.8733 21.752 74.8013 22.328C73.7293 22.904 72.5133 23.192 71.1533 23.192ZM71.1533 20.12C71.7773 20.12 72.3373 19.976 72.8333 19.688C73.3293 19.4 73.7213 18.992 74.0093 18.464C74.2973 17.92 74.4413 17.28 74.4413 16.544C74.4413 15.792 74.2973 15.152 74.0093 14.624C73.7213 14.096 73.3293 13.688 72.8333 13.4C72.3373 13.112 71.7773 12.968 71.1533 12.968C70.5293 12.968 69.9693 13.112 69.4733 13.4C68.9773 13.688 68.5773 14.096 68.2733 14.624C67.9853 15.152 67.8413 15.792 67.8413 16.544C67.8413 17.28 67.9853 17.92 68.2733 18.464C68.5773 18.992 68.9773 19.4 69.4733 19.688C69.9693 19.976 70.5293 20.12 71.1533 20.12ZM80.7358 23V5.192H84.4798V23H80.7358ZM87.9546 23V10.088H91.6986V23H87.9546ZM89.8266 8.288C89.1386 8.288 88.5786 8.088 88.1466 7.688C87.7146 7.288 87.4986 6.792 87.4986 6.2C87.4986 5.608 87.7146 5.112 88.1466 4.712C88.5786 4.312 89.1386 4.112 89.8266 4.112C90.5146 4.112 91.0746 4.304 91.5066 4.688C91.9386 5.056 92.1546 5.536 92.1546 6.128C92.1546 6.752 91.9386 7.272 91.5066 7.688C91.0906 8.088 90.5306 8.288 89.8266 8.288ZM101.317 23.192C99.9413 23.192 98.7173 22.904 97.6453 22.328C96.5893 21.752 95.7493 20.968 95.1253 19.976C94.5173 18.968 94.2133 17.824 94.2133 16.544C94.2133 15.248 94.5173 14.104 95.1253 13.112C95.7493 12.104 96.5893 11.32 97.6453 10.76C98.7173 10.184 99.9413 9.896 101.317 9.896C102.677 9.896 103.893 10.184 104.965 10.76C106.037 11.32 106.877 12.096 107.485 13.088C108.093 14.08 108.397 15.232 108.397 16.544C108.397 17.824 108.093 18.968 107.485 19.976C106.877 20.968 106.037 21.752 104.965 22.328C103.893 22.904 102.677 23.192 101.317 23.192ZM101.317 20.12C101.941 20.12 102.501 19.976 102.997 19.688C103.493 19.4 103.885 18.992 104.173 18.464C104.461 17.92 104.605 17.28 104.605 16.544C104.605 15.792 104.461 15.152 104.173 14.624C103.885 14.096 103.493 13.688 102.997 13.4C102.501 13.112 101.941 12.968 101.317 12.968C100.693 12.968 100.133 13.112 99.6373 13.4C99.1413 13.688 98.7413 14.096 98.4373 14.624C98.1493 15.152 98.0053 15.792 98.0053 16.544C98.0053 17.28 98.1493 17.92 98.4373 18.464C98.7413 18.992 99.1413 19.4 99.6373 19.688C100.133 19.976 100.693 20.12 101.317 20.12ZM108.609 25.16V23H120.609V25.16H108.609Z" fill="#061A40"/>
<path d="M104.53 18.9227C105.739 17.2633 105.409 15.1935 103.771 14L99.6536 19.7395C101.292 20.933 103.321 20.582 104.53 18.9227Z" fill="#061A40"/>
</svg>
